{"buffers":[{"uri":"scene2.bin","byteLength":25359600}],"asset":{"version":"2.0","generator":"gltfpack 0.18","extras":{"author":"hazelmatthews (https://sketchfab.com/hazelmatthews)","license":"CC-BY-4.0 (http://creativecommons.org/licenses/by/4.0/)","source":"https://sketchfab.com/3d-models/white-t-shirt-3f98e641831b41ccb1807d0f68cc51dc","title":"White T-Shirt"}},"extensionsUsed":["KHR_mesh_quantization"],"extensionsRequired":["KHR_mesh_quantization"],"bufferViews":[{"buffer":0,"byteOffset":0,"byteLength":6339848,"byteStride":4,"target":34962},{"buffer":0,"byteOffset":6339848,"byteLength":12679696,"byteStride":8,"target":34962},{"buffer":0,"byteOffset":19019544,"byteLength":6340056,"target":34963}],"accessors":[{"bufferView":0,"byteOffset":0,"componentType":5120,"count":1584962,"type":"VEC3","normalized":true},{"bufferView":1,"byteOffset":0,"componentType":5123,"count":1584962,"type":"VEC3","min":[0,0,0],"max":[13411,16383,7115]},{"bufferView":2,"byteOffset":0,"componentType":5125,"count":1585014,"type":"SCALAR"}],"materials":[{"name":"Default_OBJ","pbrMetallicRoughness":{"baseColorFactor":[0.800000012,0.800000012,0.800000012,1],"metallicFactor":0},"doubleSided":true}],"meshes":[{"primitives":[{"attributes":{"NORMAL":0,"POSITION":1},"indices":2,"material":0}]}],"nodes":[{"mesh":0,"translation":[-57.267334,-55.2289963,-24.6463184],"scale":[0.00881691091,0.00881691091,0.00881691091]}],"scenes":[{"name":"Sketchfab_Scene","nodes":[0]}],"scene":0}